<?xml version="1.0" encoding="UTF-8"?>
<svg width="11px" height="15px" viewBox="0 0 11 15" version="1.1" xmlns="http://www.w3.org/2000/svg" xmlns:xlink="http://www.w3.org/1999/xlink">
    <title>arrow</title>
    <g id="productie" stroke="none" stroke-width="1" fill="none" fill-rule="evenodd">
        <path d="M0.198564224,12.554 C0.072564224,12.76 0.00756422398,12.989 0.000564223977,13.218 C-0.010435776,13.598 0.139564224,13.978 0.436564224,14.251 L0.490564224,14.292 L0.627564224,14.396 L0.713564224,14.441 L0.837564224,14.504 L0.931564224,14.534 L1.06056422,14.573 L1.15956422,14.587 L1.28956422,14.602 L1.30356422,14.604 L1.41656422,14.598 L1.51356422,14.593 L1.64856422,14.566 L1.73356422,14.547 L1.89056422,14.486 L1.94656422,14.463 L2.14656422,14.341 L9.88056422,8.624 C10.2115642,8.379 10.4125642,7.996 10.4255642,7.584 C10.4385642,7.172 10.2625642,6.777 9.94756422,6.511 L2.59156422,0.316 L2.39856422,0.181 L2.34656422,0.156 L2.19256422,0.084 L2.10956422,0.06 L1.97556422,0.023 L1.88056422,0.013 L1.76656422,0 L1.75256422,0 L1.62256422,0.008 L1.52156422,0.015 L1.39356422,0.045 L1.29556422,0.07 L1.16956422,0.124 L1.07856422,0.164 L0.940564224,0.256 L0.878564224,0.297 C0.565564224,0.55 0.391564224,0.92 0.378564224,1.301 C0.370564224,1.529 0.420564224,1.762 0.534564224,1.975 L3.34296591,7.33711156 L0.198564224,12.554 Z" id="arrow" fill="#32234E"></path>
    </g>
</svg>